<?xml version="1.0" standalone="no"?>
<!DOCTYPE svg PUBLIC "-//W3C//DTD SVG 20010904//EN"
 "http://www.w3.org/TR/2001/REC-SVG-20010904/DTD/svg10.dtd">
<svg version="1.0" xmlns="http://www.w3.org/2000/svg"
 width="206.000000pt" height="207.000000pt" viewBox="0 0 206.000000 207.000000"
 preserveAspectRatio="xMidYMid meet">

<g transform="translate(0.000000,207.000000) scale(0.100000,-0.100000)"
fill="#000000" stroke="none">
<path d="M983 1619 c-49 -9 -103 -46 -123 -84 -13 -24 -17 -26 -66 -19 -31 3
-67 1 -86 -5 -40 -13 -92 -64 -107 -104 -38 -100 26 -213 131 -231 50 -9 123
11 151 41 12 13 30 28 40 34 17 10 17 9 3 -19 -21 -40 -82 -92 -117 -99 l-29
-5 0 -89 0 -89 256 2 256 3 2 104 1 105 46 12 c54 13 79 29 111 69 32 41 33
156 3 196 -42 56 -116 89 -169 75 -19 -5 -25 -14 -28 -39 -3 -32 -3 -31 -31
26 -33 67 -74 102 -137 116 -51 12 -50 12 -107 0z"/>
<path d="M583 842 c15 -131 103 -260 216 -321 67 -35 80 -48 57 -57 -9 -3 -16
-12 -16 -20 0 -12 36 -14 200 -14 110 0 200 4 200 9 0 5 -7 14 -15 21 -20 16
-14 23 48 58 61 34 146 121 175 178 20 41 42 127 42 169 l0 25 -456 0 -457 0
6 -48z m862 -24 c-32 -147 -156 -270 -308 -309 -69 -17 -199 -7 -272 22 -105
40 -218 176 -238 287 l-6 32 415 0 416 0 -7 -32z"/>
<path d="M708 759 c8 -22 33 -60 54 -84 39 -45 105 -92 114 -82 3 3 -4 11 -16
17 -27 14 -96 121 -105 160 -5 25 -12 30 -35 30 l-28 0 16 -41z"/>
</g>
</svg>
